<?xml version="1.0" encoding="utf-8"?>
<!-- Generator: Adobe Illustrator 19.0.0, SVG Export Plug-In . SVG Version: 6.00 Build 0)  -->
<svg version="1.1" xmlns="http://www.w3.org/2000/svg" xmlns:xlink="http://www.w3.org/1999/xlink" x="0px" y="0px"
	 viewBox="0 0 378 387" style="enable-background:new 0 0 378 387;" xml:space="preserve">
<style type="text/css">
	.st0{fill:#FCFCFC;}
</style>
<g id="Layer_2">
	<circle id="XMLID_49_" cx="190.5" cy="193.5" r="184.5"/>
</g>
<g id="Layer_1">
	<g id="XMLID_11_">
		<g id="XMLID_70_">
			<path class="st0" d="M83,45c0,42.1,0,84.1,0,126.2c0,5.9,0,11.9,0,17.8c0,7.7,12,7.7,12,0c0-42.1,0-84.1,0-126.2
				c0-5.9,0-11.9,0-17.8C95,37.3,83,37.3,83,45L83,45z"/>
		</g>
	</g>
	<g id="XMLID_2_">
		<g id="XMLID_64_">
			<path class="st0" d="M168,81c-0.3-14-11.4-24-23.1-30.1C128,42.1,108.4,39.1,89.5,39c-7.7,0-7.7,12,0,12
				c15.9,0.1,32.6,2.3,47.1,9.2c8.2,3.9,19.2,10.5,19.4,20.8C156.2,88.7,168.2,88.7,168,81L168,81z"/>
		</g>
	</g>
	<g id="XMLID_1_">
		<g id="XMLID_58_">
			<path class="st0" d="M168,81c-0.3-13.9-11.3-24-22.9-30.1C128.3,42.1,108.8,39.1,90,39c-7.7,0-7.7,12,0,12
				c15.8,0.1,32.3,2.3,46.7,9.1c8.2,3.9,19,10.6,19.3,20.9C156.2,88.7,168.2,88.7,168,81L168,81z"/>
		</g>
	</g>
	<g id="XMLID_3_">
		<g id="XMLID_52_">
			<path class="st0" d="M156,81c-0.2,10.3-11.1,16.9-19.3,20.9c-14.4,6.9-30.9,9-46.7,9.1c-7.7,0-7.7,12,0,12
				c18.8-0.1,38.3-3.1,55.1-11.9C156.7,105,167.7,94.9,168,81C168.2,73.3,156.2,73.3,156,81L156,81z"/>
		</g>
	</g>
	<g id="XMLID_4_">
		<g id="XMLID_45_">
			<path class="st0" d="M85.8,121.2c24.3,24.3,48.6,48.6,72.9,72.9c38.8,38.8,77.5,77.5,116.3,116.3c8.9,8.9,17.8,17.8,26.8,26.8
				c5.5,5.5,14-3,8.5-8.5c-24.3-24.3-48.6-48.6-72.9-72.9c-38.8-38.8-77.5-77.5-116.3-116.3c-8.9-8.9-17.8-17.8-26.8-26.8
				C88.8,107.3,80.3,115.8,85.8,121.2L85.8,121.2z"/>
		</g>
	</g>
	<g id="XMLID_6_">
		<g id="XMLID_39_">
			<path class="st0" d="M311.8,331.4c-10.5-42.1-21-84.1-31.5-126.2c-1.5-5.9-3-11.9-4.5-17.8c-1.9-7.5-13.4-4.3-11.6,3.2
				c10.5,42.1,21,84.1,31.5,126.2c1.5,5.9,3,11.9,4.5,17.8C302.1,342.1,313.7,338.9,311.8,331.4L311.8,331.4z"/>
		</g>
	</g>
	<g id="XMLID_17_">
		<g id="XMLID_33_">
			<path class="st0" d="M264.2,187.4c-10.5,42.1-21,84.1-31.5,126.2c-1.5,5.9-3,11.9-4.5,17.8c-1.9,7.5,9.7,10.7,11.6,3.2
				c10.5-42.1,21-84.1,31.5-126.2c1.5-5.9,3-11.9,4.5-17.8C277.7,183.1,266.1,179.9,264.2,187.4L264.2,187.4z"/>
		</g>
	</g>
	<g id="XMLID_19_">
		<g id="XMLID_27_">
			<path class="st0" d="M175.2,202.2c18-15,36-30,54-45c5.9-4.9-2.6-13.4-8.5-8.5c-18,15-36,30-54,45
				C160.8,198.7,169.3,207.2,175.2,202.2L175.2,202.2z"/>
		</g>
	</g>
	<g id="XMLID_20_">
		<g id="XMLID_21_">
			<path class="st0" d="M164,198c0,27,0,54,0,81c0,7.7,12,7.7,12,0c0-27,0-54,0-81C176,190.3,164,190.3,164,198L164,198z"/>
		</g>
	</g>
</g>
</svg>
